<?xml version="1.0" encoding="UTF-8" standalone="no"?>
<svg
   width="100%"
   height="100%"
   viewBox="0 0 4411.8052 2526.02"
   version="1.1"
   xml:space="preserve"
   style="clip-rule:evenodd;fill-rule:evenodd;stroke-linejoin:round;stroke-miterlimit:2"
   id="svg30"
   sodipodi:docname="clean_architecture_overview.svg"
   inkscape:version="1.3 (0e150ed6c4, 2023-07-21)"
   xmlns:inkscape="http://www.inkscape.org/namespaces/inkscape"
   xmlns:sodipodi="http://sodipodi.sourceforge.net/DTD/sodipodi-0.dtd"
   xmlns="http://www.w3.org/2000/svg"
   xmlns:svg="http://www.w3.org/2000/svg"><defs
     id="defs30" /><sodipodi:namedview
     id="namedview30"
     pagecolor="#ffffff"
     bordercolor="#666666"
     borderopacity="1.0"
     inkscape:showpageshadow="2"
     inkscape:pageopacity="0.0"
     inkscape:pagecheckerboard="0"
     inkscape:deskcolor="#d1d1d1"
     inkscape:zoom="0.46774832"
     inkscape:cx="2349.5541"
     inkscape:cy="1263.5"
     inkscape:window-width="3440"
     inkscape:window-height="1368"
     inkscape:window-x="0"
     inkscape:window-y="0"
     inkscape:window-maximized="1"
     inkscape:current-layer="svg30"
     inkscape:clip-to-page="false"
     inkscape:document-units="px" /><circle
     cx="1263.01"
     cy="1263.01"
     r="1263.01"
     style="fill:#69bac9"
     id="circle1" /><circle
     cx="1263.01"
     cy="1263.01"
     r="921.67499"
     style="fill:#9be87f"
     id="circle2" /><circle
     cx="1263.01"
     cy="1263.01"
     r="636.43903"
     style="fill:#ffa291"
     id="circle3" /><ellipse
     cx="1263.01"
     cy="1263.01"
     rx="355.005"
     ry="341.51801"
     style="fill:#ffe86c"
     id="ellipse3" /><text
     x="1049.72"
     y="1304.3101"
     style="font-weight:700;font-size:117.312px;font-family:Arial-BoldMT, Arial, sans-serif"
     id="text3">Entities</text><text
     x="1052.3101"
     y="837.05103"
     style="font-weight:700;font-size:82.913px;font-family:Arial-BoldMT, Arial, sans-serif"
     id="text4">Use Cases</text><text
     x="1010.25"
     y="535.302"
     style="font-weight:700;font-size:104.31px;font-family:Arial-BoldMT, Arial, sans-serif"
     id="text5">Controllers</text><text
     x="3034.79"
     y="418.58401"
     style="font-weight:700;font-size:104.31px;font-family:Arial-BoldMT, Arial, sans-serif"
     id="text6">Enterprise Business Rules</text><text
     x="3042.3799"
     y="593.06299"
     style="font-weight:700;font-size:104.31px;font-family:Arial-BoldMT, Arial, sans-serif"
     id="text7">Application Business Rules</text><text
     x="3035.25"
     y="768.646"
     style="font-weight:700;font-size:104.31px;font-family:Arial-BoldMT, Arial, sans-serif"
     id="text8">Interface <tspan
   x="3495.1699 3570.5"
   y="768.646 768.646"
   id="tspan7">Ad</tspan>apters</text><text
     x="3034.6899"
     y="944.29901"
     style="font-weight:700;font-size:104.31px;font-family:Arial-BoldMT, Arial, sans-serif"
     id="text9">Frameworks &amp; Drivers</text><g
     transform="matrix(0.662628,0.748948,-0.748948,0.662628,481.9,-224.084)"
     id="g10"><text
       x="1389.16"
       y="1196.63"
       style="font-weight:700;font-size:90.05px;font-family:Arial-BoldMT, Arial, sans-serif"
       id="text10">Gateways</text></g><g
     transform="rotate(-51.473232,504.72462,2190.0863)"
     id="g11"><text
       x="1460.87"
       y="3012.6101"
       style="font-weight:700;font-size:95.722px;font-family:Arial-BoldMT, Arial, sans-serif"
       id="text11">Presenters</text></g><text
     x="1768.4"
     y="375.60599"
     style="font-weight:700;font-size:97.352px;font-family:Arial-BoldMT, Arial, sans-serif"
     id="text12">W<tspan
   x="1858.53 1912.67"
   y="375.60599 375.60599"
   id="tspan11">eb</tspan></text><text
     x="1968.05"
     y="2050.8999"
     style="font-weight:700;font-size:97.352px;font-family:Arial-BoldMT, Arial, sans-serif"
     id="text13">UI</text><text
     x="387.25101"
     y="2050.8999"
     style="font-weight:700;font-size:97.352px;font-family:Arial-BoldMT, Arial, sans-serif"
     id="text14">DB</text><text
     x="387.25101"
     y="2050.8999"
     style="font-weight:700;font-size:97.352px;font-family:Arial-BoldMT, Arial, sans-serif"
     id="text15">DB</text><text
     x="919.74902"
     y="2362.26"
     style="font-weight:700;font-size:76.508px;font-family:Arial-BoldMT, Arial, sans-serif"
     id="text16">External Interfaces</text><text
     x="543.83002"
     y="340.19199"
     style="font-weight:700;font-size:97.352px;font-family:Arial-BoldMT, Arial, sans-serif"
     id="text17">Devices</text><path
     d="m 231.562,1271.79 v -17.56 h 204.704 v -16.306 l 25.086,25.086 -25.086,25.086 v -16.306 z"
     id="path17" /><path
     d="m 511.673,1271.79 v -17.56 h 204.705 v -16.306 l 25.086,25.086 -25.086,25.086 v -16.306 z"
     id="path18" /><path
     d="m 791.785,1271.79 v -17.56 H 996.49 v -16.306 l 25.085,25.086 -25.085,25.086 v -16.306 z"
     id="path19" /><path
     d="m 1265.9685,1204.7 -2.9605,-4.767 1656.8494,-821.201 2.9605,4.767 z"
     id="path20"
     style="stroke-width:0.919445" /><path
     d="m 1266.51,1204.7 -3.502,-4.767 1959.89,-821.201 3.502,4.767 z"
     style="fill:none"
     id="path21" /><path
     d="m 1744.0208,1209.46 -2.7728,-4.767 1175.8935,-646.722 2.7727,4.767 z"
     id="path22"
     style="stroke-width:0.88981" /><path
     d="m 1744.75,1209.46 -3.502,-4.767 1485.16,-646.722 3.502,4.767 z"
     style="fill:none"
     id="path23" /><path
     d="m 2030.7129,1204.7 -2.6049,-4.767 891.3293,-471.776 2.6048,4.767 z"
     id="path24"
     style="stroke-width:0.862458" /><path
     d="m 2031.61,1204.7 -3.502,-4.767 1198.29,-471.776 3.502,4.767 z"
     style="fill:none"
     id="path25" /><path
     d="m 2348.8081,1199.93 -2.2901,-4.767 575.375,-295.909 2.29,4.767 z"
     id="path26"
     style="stroke-width:0.808655" /><path
     d="m 2350.02,1199.93 -3.502,-4.767 879.883,-295.909 3.502,4.767 z"
     style="fill:none"
     id="path27" /><circle
     cx="2922.24"
     cy="391.539"
     r="59.129002"
     style="fill:#ffe86c"
     id="circle27" /><circle
     cx="2922.24"
     cy="566.01801"
     r="59.129002"
     style="fill:#ffa291"
     id="circle28" /><circle
     cx="2922.24"
     cy="740.96399"
     r="59.129002"
     style="fill:#9be87f"
     id="circle29" /><circle
     cx="2922.24"
     cy="907.297"
     r="59.129002"
     style="fill:#69bac9"
     id="circle30" /></svg>
